<svg width="35" height="33" viewBox="0 0 35 33" fill="none" xmlns="http://www.w3.org/2000/svg">
<path d="M16.4214 8.00568V16.4125" stroke="#2486C4" stroke-width="2" stroke-linecap="round" stroke-linejoin="round"/>
<path d="M23.7073 20.6159L16.4214 16.4125" stroke="#2486C4" stroke-width="2" stroke-linecap="round" stroke-linejoin="round"/>
<path d="M26.2643 11.456H33.27V4.4503" stroke="#2486C4" stroke-width="2" stroke-linecap="round" stroke-linejoin="round"/>
<path d="M27.3152 27.3063C25.1602 29.463 22.414 30.9322 19.4239 31.5279C16.4339 32.1236 13.3343 31.8191 10.5173 30.6529C7.70029 29.4868 5.29244 27.5113 3.59834 24.9765C1.90424 22.4417 1 19.4613 1 16.4125C1 13.3636 1.90424 10.3833 3.59834 7.84846C5.29244 5.31362 7.70029 3.33817 10.5173 2.17201C13.3343 1.00584 16.4339 0.701361 19.4239 1.29707C22.414 1.89279 25.1602 3.36193 27.3152 5.51866L33.27 11.456" stroke="#2486C4" stroke-width="2" stroke-linecap="round" stroke-linejoin="round"/>
</svg>
