<svg width="40" height="40" viewBox="0 0 40 40" fill="none" xmlns="http://www.w3.org/2000/svg">
<path d="M9.38776 35.9184H31.4286" stroke="#2486C4" stroke-width="2" stroke-linecap="round" stroke-linejoin="round"/>
<path d="M20.4082 21.2245C23.1132 21.2245 25.3061 19.0316 25.3061 16.3265C25.3061 13.6215 23.1132 11.4286 20.4082 11.4286C17.7031 11.4286 15.5102 13.6215 15.5102 16.3265C15.5102 19.0316 17.7031 21.2245 20.4082 21.2245Z" stroke="#2486C4" stroke-width="2" stroke-linecap="round" stroke-linejoin="round"/>
<path d="M32.6531 16.3265C32.6531 27.3469 20.4082 35.9184 20.4082 35.9184C20.4082 35.9184 8.16327 27.3469 8.16327 16.3265C8.16327 13.079 9.45335 9.96445 11.7497 7.66808C14.0461 5.37172 17.1606 4.08163 20.4082 4.08163C23.6557 4.08163 26.7702 5.37172 29.0666 7.66808C31.363 9.96445 32.6531 13.079 32.6531 16.3265V16.3265Z" stroke="#2486C4" stroke-width="2" stroke-linecap="round" stroke-linejoin="round"/>
</svg>
