<svg width="49" height="49" viewBox="0 0 49 49" fill="none" xmlns="http://www.w3.org/2000/svg">
<path d="M24.4214 19.0057V27.4125" stroke="#2486C4" stroke-width="2" stroke-linecap="round" stroke-linejoin="round"/>
<path d="M31.7073 31.6159L24.4214 27.4125" stroke="#2486C4" stroke-width="2" stroke-linecap="round" stroke-linejoin="round"/>
<path d="M34.2643 22.456H41.27V15.4503" stroke="#2486C4" stroke-width="2" stroke-linecap="round" stroke-linejoin="round"/>
<path d="M35.3152 38.3063C33.1602 40.463 30.414 41.9322 27.4239 42.5279C24.4339 43.1236 21.3343 42.8191 18.5173 41.6529C15.7003 40.4868 13.2924 38.5113 11.5983 35.9765C9.90424 33.4417 9 30.4613 9 27.4125C9 24.3636 9.90424 21.3833 11.5983 18.8485C13.2924 16.3136 15.7003 14.3382 18.5173 13.172C21.3343 12.0058 24.4339 11.7014 27.4239 12.2971C30.414 12.8928 33.1602 14.3619 35.3152 16.5187L41.27 22.456" stroke="#2486C4" stroke-width="2" stroke-linecap="round" stroke-linejoin="round"/>
</svg>
