<svg width="50" height="50" viewBox="0 0 50 50" fill="none" xmlns="http://www.w3.org/2000/svg">
<path d="M25 43.75C35.3553 43.75 43.75 35.3553 43.75 25C43.75 14.6447 35.3553 6.25 25 6.25C14.6447 6.25 6.25 14.6447 6.25 25C6.25 35.3553 14.6447 43.75 25 43.75Z" stroke="#2486C4" stroke-width="2" stroke-linecap="round" stroke-linejoin="round"/>
<path d="M25 31.25C29.3147 31.25 32.8125 27.7522 32.8125 23.4375C32.8125 19.1228 29.3147 15.625 25 15.625C20.6853 15.625 17.1875 19.1228 17.1875 23.4375C17.1875 27.7522 20.6853 31.25 25 31.25Z" stroke="#2486C4" stroke-width="2" stroke-linecap="round" stroke-linejoin="round"/>
<path d="M12.4609 38.9453C13.6365 36.6297 15.4304 34.6849 17.6436 33.3264C19.8569 31.9679 22.4031 31.2488 25 31.2488C27.5969 31.2488 30.1431 31.9679 32.3564 33.3264C34.5696 34.6849 36.3635 36.6297 37.5391 38.9453" stroke="#2486C4" stroke-width="2" stroke-linecap="round" stroke-linejoin="round"/>
</svg>
