<svg width="26" height="27" viewBox="0 0 26 27" fill="none" xmlns="http://www.w3.org/2000/svg">
<path d="M16.1875 24.625V18.25C16.1875 17.9682 16.0756 17.6979 15.8763 17.4987C15.677 17.2994 15.4068 17.1875 15.125 17.1875H10.875C10.5932 17.1875 10.323 17.2994 10.1237 17.4987C9.92444 17.6979 9.8125 17.9682 9.8125 18.25V24.625C9.8125 24.9068 9.70056 25.177 9.5013 25.3763C9.30204 25.5755 9.03179 25.6875 8.75 25.6875H2.375C2.09321 25.6875 1.82296 25.5755 1.6237 25.3763C1.42444 25.177 1.3125 24.9068 1.3125 24.625V12.3398C1.31488 12.1928 1.34666 12.0477 1.40596 11.9131C1.46526 11.7786 1.5509 11.6572 1.65781 11.5562L12.2828 1.90076C12.4787 1.72157 12.7345 1.62219 13 1.62219C13.2655 1.62219 13.5213 1.72157 13.7172 1.90076L24.3422 11.5562C24.4491 11.6572 24.5347 11.7786 24.594 11.9131C24.6533 12.0477 24.6851 12.1928 24.6875 12.3398V24.625C24.6875 24.9068 24.5756 25.177 24.3763 25.3763C24.177 25.5755 23.9068 25.6875 23.625 25.6875H17.25C16.9682 25.6875 16.698 25.5755 16.4987 25.3763C16.2994 25.177 16.1875 24.9068 16.1875 24.625Z" stroke="#2486C4" stroke-width="2" stroke-linecap="round" stroke-linejoin="round"/>
</svg>
