<svg width="22" height="28" viewBox="0 0 22 28" fill="none" xmlns="http://www.w3.org/2000/svg">
<path d="M11 0C8.08363 0.00330854 5.28766 1.16334 3.22548 3.22561C1.1633 5.28787 0.00330842 8.08395 0 11.0004C0 20.4133 10 27.5261 10.425 27.8261C10.5953 27.9395 10.7954 28 11 28C11.2046 28 11.4047 27.9395 11.575 27.8261C12 27.5261 22 20.4133 22 11.0004C21.9967 8.08395 20.8367 5.28787 18.7745 3.22561C16.7123 1.16334 13.9164 0.00330854 11 0ZM11 7.00027C11.7911 7.00027 12.5645 7.23488 13.2223 7.67442C13.8801 8.11396 14.3928 8.7387 14.6955 9.46963C14.9983 10.2006 15.0775 11.0049 14.9231 11.7808C14.7688 12.5568 14.3878 13.2695 13.8284 13.829C13.269 14.3884 12.5563 14.7694 11.7804 14.9237C11.0044 15.0781 10.2002 14.9989 9.46927 14.6961C8.73836 14.3933 8.11365 13.8806 7.67412 13.2228C7.2346 12.565 7 11.7916 7 11.0004C7 9.93952 7.42143 8.92206 8.17157 8.17189C8.92172 7.42172 9.93913 7.00027 11 7.00027Z" fill="#2486C4"/>
</svg>
