<svg width="32" height="32" viewBox="0 0 32 32" fill="none" xmlns="http://www.w3.org/2000/svg">
<path d="M20.7776 10.9647C20.3862 10.3497 19.9717 10.0564 19.5406 9.58214C19.3531 9.37596 19.1603 9.24038 19 9" stroke="#2486C4" stroke-width="3" stroke-linecap="round"/>
<path d="M7.75738 22.3726C7.75738 21.9007 7.82847 21.6793 7.9393 21.2914C7.98406 21.1348 8.03805 20.8903 8.03805 20.7353C8.03805 20.4858 8.03805 20.2363 8.03805 19.9868C8.03805 19.5147 7.55671 20.7998 7.29479 21.1927C7.29373 21.1943 7.10079 19.6638 7.02971 19.3163C6.86322 18.5024 6.72825 16.0115 6.72825 16.8423C6.72825 17.5779 6.63469 18.3106 6.63469 19.0409C6.63469 19.6779 6.35402 18.2508 6.35402 18.0325C6.35402 17.4539 6.35402 16.8752 6.35402 16.2965C6.35402 16.0089 6.35402 15.7213 6.35402 15.4337C6.35402 14.5253 6.21837 17.2455 6.16171 18.1521C6.13578 18.567 6.07335 18.9535 6.07335 19.3787C6.07335 19.517 6.07335 20.0477 6.07335 19.597C6.07335 18.502 6.07335 17.4071 6.07335 16.3121C6.07335 15.7597 5.88336 14.7541 6.11493 14.2331C6.33279 13.7429 6.52501 13.2628 6.82181 12.8089C7.45495 11.8406 7.80915 10.8056 8.85928 10.1373C9.27181 9.8748 9.50639 9.35995 9.9092 9.10819C10.3136 8.85544 10.6169 8.35705 11.0787 8.15182C11.5776 7.93009 12.2165 7.59048 12.7627 7.59048C13.0982 7.59048 13.2997 7.40336 13.6099 7.40336C14.2552 7.40336 15.053 7.35194 15.6734 7.16947C16.1203 7.03803 16.6053 7.13431 17.0611 6.98235C17.4191 6.86302 17.6364 6.95464 17.1079 6.74326C16.1505 6.36028 15.529 6.47834 14.5871 6.72767C13.6759 6.96886 16.4721 6.74846 17.4146 6.74846C18.2439 6.74846 19.0525 6.98562 19.7535 7.44494C19.8161 7.48597 20.427 8.03302 20.4188 8.03747C20.2333 8.13869 19.5677 7.75533 19.3793 7.70482C18.9783 7.59735 18.5839 7.59679 18.1734 7.59048C17.6171 7.58192 16.9774 7.45624 16.4374 7.3098C16.0191 7.19636 15.6463 7.0332 15.242 6.8888C14.9975 6.80149 14.8278 6.60918 14.5507 6.56654C14.3552 6.53647 13.7916 6.37423 13.9893 6.37423C14.4407 6.37423 14.971 6.61063 15.3771 6.79524C15.6203 6.90576 16.129 6.98208 16.401 7.02393C16.676 7.06624 17.7761 7.25748 17.056 7.02393C16.1465 6.72897 15.1468 6 14.1609 6C13.4301 6 12.7558 6.96193 12.2481 7.38257C11.5397 7.9696 10.9736 9.68035 10.7304 10.4908C10.3289 11.8291 8.91459 12.4649 8.88007 13.9836C8.8362 15.9137 8.34659 17.9649 8.69815 19.8985C8.77858 20.3408 9.22629 20.4594 9.57655 20.2259C9.74933 20.1107 9.15334 20.3471 9.02041 20.5066C8.93107 20.6138 8.62869 20.9692 8.92685 20.9692C9.50893 20.9692 9.63767 20.658 10.0963 20.4286C10.2873 20.3331 11.0522 19.9437 10.9175 19.6594C10.677 19.1515 10.6792 18.7507 10.5589 18.2092C10.5081 17.9808 10.2834 17.8233 10.2834 17.6011C10.2834 17.2126 10.0963 16.808 10.0963 16.3901C10.0963 14.9098 9.81431 13.5209 10.0755 12.0189C10.2107 11.2416 10.3635 9.86741 11.219 9.48242C11.7692 9.23483 11.0712 10.5843 11.4789 10.5843C11.9454 10.5843 12.5396 9.84275 12.8822 9.53439C13.153 9.29074 13.6611 9.27846 13.9841 9.18615C14.5845 9.01461 15.7436 8.82375 16.3075 9.04062C17.1516 9.36527 18.087 9.18428 18.9375 9.37327C19.108 9.41115 19.1415 9.27177 19.3117 9.13937C19.5998 8.91529 19.9582 8.81627 20.2889 8.67158C20.6655 8.50681 21.2054 8.22441 21.6039 8.24538C22.0633 8.26956 22.5825 8.9491 22.8409 9.27451C23.26 9.80224 23.8202 10.0168 24.1299 10.6363C24.3623 11.101 24.5119 11.6137 24.7121 12.102C25.2501 13.4149 25.7204 14.9214 25.7204 16.3381C25.7204 17.2131 25.814 18.0827 25.814 18.9629C25.814 19.348 25.9498 19.9794 25.5801 20.2259C25.3363 20.3884 25.2051 20.783 25.0239 21.016C24.9129 21.1587 24.6603 23.1908 24.1299 22.8195C23.7494 22.5532 23.7504 21.6628 23.3815 21.4578C23.2598 21.3902 22.875 21.2664 22.7266 21.2499C22.209 21.1924 22.1259 20.4078 21.5103 20.4078C20.9966 20.4078 20.9896 20.1618 21.2712 19.7997C21.6515 19.3108 21.9325 18.7523 22.1184 18.1573C22.4148 17.209 22.3523 16.1468 22.3523 15.1634C22.3523 14.0205 22.5799 12.4353 21.9313 11.4263C21.8199 11.2529 21.3255 9.57706 21.6974 9.55518C21.9459 9.54057 22.1822 9.49934 22.2796 9.77348C22.7273 11.0336 22.6851 12.4821 23.2359 13.7133C23.7201 14.7956 23.7176 15.8712 23.8701 17.0398C23.9865 17.9322 24.1299 18.8525 24.1299 19.7529" stroke="#2486C4" stroke-width="3" stroke-linecap="round"/>
<path d="M7.75738 22.3726C7.75738 21.9007 7.82847 21.6793 7.9393 21.2914C7.98406 21.1348 8.03805 20.8903 8.03805 20.7353C8.03805 20.4858 8.03805 20.2363 8.03805 19.9868C8.03805 19.5147 7.55671 20.7998 7.29479 21.1927C7.29373 21.1943 7.10079 19.6638 7.02971 19.3163C6.86322 18.5024 6.72825 16.0115 6.72825 16.8423C6.72825 17.5779 6.63469 18.3106 6.63469 19.0409C6.63469 19.6779 6.35402 18.2508 6.35402 18.0325C6.35402 17.4539 6.35402 16.8752 6.35402 16.2965C6.35402 16.0089 6.35402 15.7213 6.35402 15.4337C6.35402 14.5253 6.21837 17.2455 6.16171 18.1521C6.13578 18.567 6.07335 18.9535 6.07335 19.3787C6.07335 19.517 6.07335 20.0477 6.07335 19.597C6.07335 18.502 6.07335 17.4071 6.07335 16.3121C6.07335 15.7597 5.88336 14.7541 6.11493 14.2331C6.33279 13.7429 6.52501 13.2628 6.82181 12.8089C7.45495 11.8406 7.80915 10.8056 8.85928 10.1373C9.27181 9.8748 9.50639 9.35995 9.9092 9.10819C10.3136 8.85544 10.6169 8.35705 11.0787 8.15182C11.5776 7.93009 12.2165 7.59048 12.7627 7.59048C13.0982 7.59048 13.2997 7.40336 13.6099 7.40336C14.2552 7.40336 15.053 7.35194 15.6734 7.16947C16.1203 7.03803 16.6053 7.13431 17.0611 6.98235C17.4191 6.86302 17.6364 6.95464 17.1079 6.74326C16.1505 6.36028 15.529 6.47834 14.5871 6.72767C13.6759 6.96886 16.4721 6.74846 17.4146 6.74846C18.2439 6.74846 19.0525 6.98562 19.7535 7.44494C19.8161 7.48597 20.427 8.03302 20.4188 8.03747C20.2333 8.13869 19.5677 7.75533 19.3793 7.70482C18.9783 7.59735 18.5839 7.59679 18.1734 7.59048C17.6171 7.58192 16.9774 7.45624 16.4374 7.3098C16.0191 7.19636 15.6463 7.0332 15.242 6.8888C14.9975 6.80149 14.8278 6.60918 14.5507 6.56654C14.3552 6.53647 13.7916 6.37423 13.9893 6.37423C14.4407 6.37423 14.971 6.61063 15.3771 6.79524C15.6203 6.90576 16.129 6.98208 16.401 7.02393C16.676 7.06624 17.7761 7.25748 17.056 7.02393C16.1465 6.72897 15.1468 6 14.1609 6C13.4301 6 12.7558 6.96193 12.2481 7.38257C11.5397 7.9696 10.9736 9.68035 10.7304 10.4908C10.3289 11.8291 8.91459 12.4649 8.88007 13.9836C8.8362 15.9137 8.34659 17.9649 8.69815 19.8985C8.77858 20.3408 9.22629 20.4594 9.57655 20.2259C9.74933 20.1107 9.15334 20.3471 9.02041 20.5066C8.93107 20.6138 8.62869 20.9692 8.92685 20.9692C9.50893 20.9692 9.63767 20.658 10.0963 20.4286C10.2873 20.3331 11.0522 19.9437 10.9175 19.6594C10.677 19.1515 10.6792 18.7507 10.5589 18.2092C10.5081 17.9808 10.2834 17.8233 10.2834 17.6011C10.2834 17.2126 10.0963 16.808 10.0963 16.3901C10.0963 14.9098 9.81431 13.5209 10.0755 12.0189C10.2107 11.2416 10.3635 9.86741 11.219 9.48242C11.7692 9.23483 11.0712 10.5843 11.4789 10.5843C11.9454 10.5843 12.5396 9.84275 12.8822 9.53439C13.153 9.29074 13.6611 9.27846 13.9841 9.18615C14.5845 9.01461 15.7436 8.82375 16.3075 9.04062C17.1516 9.36527 18.087 9.18428 18.9375 9.37327C19.108 9.41115 19.1415 9.27177 19.3117 9.13937C19.5998 8.91529 19.9582 8.81627 20.2889 8.67158C20.6655 8.50681 21.2054 8.22441 21.6039 8.24538C22.0633 8.26956 22.5825 8.9491 22.8409 9.27451C23.26 9.80224 23.8202 10.0168 24.1299 10.6363C24.3623 11.101 24.5119 11.6137 24.7121 12.102C25.2501 13.4149 25.7204 14.9214 25.7204 16.3381C25.7204 17.2131 25.814 18.0827 25.814 18.9629C25.814 19.348 25.9498 19.9794 25.5801 20.2259C25.3363 20.3884 25.2051 20.783 25.0239 21.016C24.9129 21.1587 24.6603 23.1908 24.1299 22.8195C23.7494 22.5532 23.7504 21.6628 23.3815 21.4578C23.2598 21.3902 22.875 21.2664 22.7266 21.2499C22.209 21.1924 22.1259 20.4078 21.5103 20.4078C20.9966 20.4078 20.9896 20.1618 21.2712 19.7997C21.6515 19.3108 21.9325 18.7523 22.1184 18.1573C22.4148 17.209 22.3523 16.1468 22.3523 15.1634C22.3523 14.0205 22.5799 12.4353 21.9313 11.4263C21.8199 11.2529 21.3255 9.57706 21.6974 9.55518C21.9459 9.54057 22.1822 9.49934 22.2796 9.77348C22.7273 11.0336 22.6851 12.4821 23.2359 13.7133C23.7201 14.7956 23.7176 15.8712 23.8701 17.0398C23.9865 17.9322 24.1299 18.8525 24.1299 19.7529" stroke="#2486C4" stroke-width="3" stroke-linecap="round"/>
<path d="M7.75738 21.3726C7.75738 20.9007 7.82847 20.6793 7.9393 20.2914C7.98406 20.1348 8.03805 19.8903 8.03805 19.7353C8.03805 19.4858 8.03805 19.2363 8.03805 18.9868C8.03805 18.5147 7.55671 19.7998 7.29479 20.1927C7.29373 20.1943 7.10079 18.6638 7.02971 18.3163C6.86322 17.5024 6.72825 15.0115 6.72825 15.8423C6.72825 16.5779 6.63469 17.3106 6.63469 18.0409C6.63469 18.6779 6.35402 17.2508 6.35402 17.0325C6.35402 16.4539 6.35402 15.8752 6.35402 15.2965C6.35402 15.0089 6.35402 14.7213 6.35402 14.4337C6.35402 13.5253 6.21837 16.2455 6.16171 17.1521C6.13578 17.567 6.07335 17.9535 6.07335 18.3787C6.07335 18.517 6.07335 19.0477 6.07335 18.597C6.07335 17.502 6.07335 16.4071 6.07335 15.3121C6.07335 14.7597 5.88336 13.7541 6.11493 13.2331C6.33279 12.7429 6.52501 12.2628 6.82181 11.8089C7.45495 10.8406 7.80915 9.80559 8.85928 9.13732C9.27181 8.8748 9.50639 8.35995 9.9092 8.10819C10.3136 7.85544 10.6169 7.35705 11.0787 7.15182C11.5776 6.93009 12.2165 6.59048 12.7627 6.59048C13.0982 6.59048 13.2997 6.40336 13.6099 6.40336C14.2552 6.40336 15.053 6.35194 15.6734 6.16947C16.1203 6.03803 16.6053 6.13431 17.0611 5.98235C17.4191 5.86302 17.6364 5.95464 17.1079 5.74326C16.1505 5.36028 15.529 5.47834 14.5871 5.72767C13.6759 5.96886 16.4721 5.74846 17.4146 5.74846C18.2439 5.74846 19.0525 5.98562 19.7535 6.44494C19.8161 6.48597 20.427 7.03302 20.4188 7.03747C20.2333 7.13869 19.5677 6.75533 19.3793 6.70482C18.9783 6.59735 18.5839 6.59679 18.1734 6.59048C17.6171 6.58192 16.9774 6.45624 16.4374 6.3098C16.0191 6.19636 15.6463 6.0332 15.242 5.8888C14.9975 5.80149 14.8278 5.60918 14.5507 5.56654C14.3552 5.53647 13.7916 5.37423 13.9893 5.37423C14.4407 5.37423 14.971 5.61063 15.3771 5.79524C15.6203 5.90576 16.129 5.98208 16.401 6.02393C16.676 6.06624 17.7761 6.25748 17.056 6.02393C16.1465 5.72897 15.1468 5 14.1609 5C13.4301 5 12.7558 5.96193 12.2481 6.38257C11.5397 6.9696 10.9736 8.68035 10.7304 9.49076C10.3289 10.8291 8.91459 11.4649 8.88007 12.9836C8.8362 14.9137 8.34659 16.9649 8.69815 18.8985C8.77858 19.3408 9.22629 19.4594 9.57655 19.2259C9.74933 19.1107 9.15334 19.3471 9.02041 19.5066C8.93107 19.6138 8.62869 19.9692 8.92685 19.9692C9.50893 19.9692 9.63767 19.658 10.0963 19.4286C10.2873 19.3331 11.0522 18.9437 10.9175 18.6594C10.677 18.1515 10.6792 17.7507 10.5589 17.2092C10.5081 16.9808 10.2834 16.8233 10.2834 16.6011C10.2834 16.2126 10.0963 15.808 10.0963 15.3901C10.0963 13.9098 9.81431 12.5209 10.0755 11.0189C10.2107 10.2416 10.3635 8.86741 11.219 8.48242C11.7692 8.23483 11.0712 9.58431 11.4789 9.58431C11.9454 9.58431 12.5396 8.84275 12.8822 8.53439C13.153 8.29074 13.6611 8.27846 13.9841 8.18615C14.5845 8.01461 15.7436 7.82375 16.3075 8.04062C17.1516 8.36527 18.087 8.18428 18.9375 8.37327C19.108 8.41115 19.1415 8.27177 19.3117 8.13937C19.5998 7.91529 19.9582 7.81627 20.2889 7.67158C20.6655 7.50681 21.2054 7.22441 21.6039 7.24538C22.0633 7.26956 22.5825 7.9491 22.8409 8.27451C23.26 8.80224 23.8202 9.01684 24.1299 9.63629C24.3623 10.101 24.5119 10.6137 24.7121 11.102C25.2501 12.4149 25.7204 13.9214 25.7204 15.3381C25.7204 16.2131 25.814 17.0827 25.814 17.9629C25.814 18.348 25.9498 18.9794 25.5801 19.2259C25.3363 19.3884 25.2051 19.783 25.0239 20.016C24.9129 20.1587 24.6603 22.1908 24.1299 21.8195C23.7494 21.5532 23.7504 20.6628 23.3815 20.4578C23.2598 20.3902 22.875 20.2664 22.7266 20.2499C22.209 20.1924 22.1259 19.4078 21.5103 19.4078C20.9966 19.4078 20.9896 19.1618 21.2712 18.7997C21.6515 18.3108 21.9325 17.7523 22.1184 17.1573C22.4148 16.209 22.3523 15.1468 22.3523 14.1634C22.3523 13.0205 22.5799 11.4353 21.9313 10.4263C21.8199 10.2529 21.3255 8.57706 21.6974 8.55518C21.9459 8.54057 22.1822 8.49934 22.2796 8.77348C22.7273 10.0336 22.6851 11.4821 23.2359 12.7133C23.7201 13.7956 23.7176 14.8712 23.8701 16.0398C23.9865 16.9322 24.1299 17.8525 24.1299 18.7529" stroke="#2486C4" stroke-width="3" stroke-linecap="round"/>
<path d="M16 28C22.6274 28 28 22.6274 28 16C28 9.37258 22.6274 4 16 4C9.37258 4 4 9.37258 4 16C4 22.6274 9.37258 28 16 28Z" stroke="#2486C4" stroke-width="2" stroke-linecap="round" stroke-linejoin="round"/>
<path d="M16 20C18.7614 20 21 17.7614 21 15C21 12.2386 18.7614 10 16 10C13.2386 10 11 12.2386 11 15C11 17.7614 13.2386 20 16 20Z" stroke="#2486C4" stroke-width="2" stroke-linecap="round" stroke-linejoin="round"/>
<path d="M7.97501 24.925C8.72739 23.443 9.87546 22.1983 11.2919 21.3289C12.7084 20.4594 14.338 19.9992 16 19.9992C17.662 19.9992 19.2916 20.4594 20.7081 21.3289C22.1246 22.1983 23.2726 23.443 24.025 24.925" stroke="#2486C4" stroke-width="2" stroke-linecap="round" stroke-linejoin="round"/>
<path d="M16 28C22.6274 28 28 22.6274 28 16C28 9.37258 22.6274 4 16 4C9.37258 4 4 9.37258 4 16C4 22.6274 9.37258 28 16 28Z" stroke="#2486C4" stroke-width="2" stroke-linecap="round" stroke-linejoin="round"/>
</svg>
